<?xml version="1.0" encoding="UTF-8"?>
<svg xmlns="http://www.w3.org/2000/svg" xmlns:xlink="http://www.w3.org/1999/xlink" width="32px" height="32px" viewBox="0 0 32 32" version="1.1">
<g id="surface1">
<path style="fill:none;stroke-width:100;stroke-linecap:butt;stroke-linejoin:miter;stroke:rgb(0%,0%,0%);stroke-opacity:1;stroke-miterlimit:4;" d="M 929.995117 490 C 929.995117 732.966309 732.966309 929.995117 490 929.995117 C 247.033691 929.995117 50.004883 732.966309 50.004883 490 C 50.004883 247.033691 247.033691 50.004883 490 50.004883 C 732.966309 50.004883 929.995117 247.033691 929.995117 490 Z M 929.995117 490 " transform="matrix(0.0326531,0,0,0.0326531,0,0)"/>
<path style=" stroke:none;fill-rule:nonzero;fill:rgb(0%,0%,0%);fill-opacity:1;" d="M 7.152344 13.976562 L 11.429688 13.976562 C 12.386719 11.882812 14.675781 10.738281 16.925781 11.230469 C 19.175781 11.722656 20.777344 13.714844 20.777344 16.015625 C 20.777344 18.320312 19.175781 20.3125 16.925781 20.800781 C 14.675781 21.292969 12.386719 20.148438 11.429688 18.058594 L 7.152344 18.058594 C 8.1875 22.5 12.390625 25.457031 16.921875 24.9375 C 21.453125 24.414062 24.875 20.578125 24.875 16.015625 C 24.875 11.453125 21.453125 7.617188 16.921875 7.09375 C 12.390625 6.574219 8.1875 9.53125 7.152344 13.976562 Z M 7.152344 13.976562 "/>
</g>
</svg>
